<svg width="164" height="48" viewBox="0 0 164 48" fill="none" xmlns="http://www.w3.org/2000/svg">
  <rect x="1" y="1" width="46" height="46" rx="12" fill="#0F172A"/>
  <path d="M20 15H28C32.4183 15 36 18.5817 36 23C36 27.4183 32.4183 31 28 31H20V15Z" fill="white"/>
  <path d="M20 15H29C31.7614 15 34 17.2386 34 20C34 22.7614 31.7614 25 29 25H20V15Z" fill="#0F172A"/>
  <path d="M20 25H28.5C31.5376 25 34 27.4624 34 30.5C34 33.5376 31.5376 36 28.5 36H20V25Z" fill="#0F172A"/>
  <rect x="35" y="20" width="4" height="8" rx="2" fill="white"/>
  <path d="M61 19.5H81.5" stroke="#0F172A" stroke-width="1.5" stroke-linecap="round"/>
  <path d="M61 29H102" stroke="#0F172A" stroke-width="1.5" stroke-linecap="round"/>
  <path d="M61 12H96" stroke="#0F172A" stroke-width="1.5" stroke-linecap="round"/>
  <text x="61" y="24" fill="#0F172A" font-family="Helvetica, Arial, sans-serif" font-size="14" font-weight="700" letter-spacing="0.12em">POWER BANK</text>
  <text x="61" y="41" fill="#64748B" font-family="Helvetica, Arial, sans-serif" font-size="12" font-weight="600" letter-spacing="0.18em">ADMIN PANEL</text>
</svg>
